<?xml version="1.0" encoding="UTF-8"?>
<svg version="1.1" xmlns="http://www.w3.org/2000/svg" width="136" height="136">
<path d="M0 0 C1.98 0 3.96 0 6 0 C6 3.3 6 6.6 6 10 C5.34 10 4.68 10 4 10 C4 11.98 4 13.96 4 16 C4.66 16 5.32 16 6 16 C6 18.64 6 21.28 6 24 C7.98 24 9.96 24 12 24 C12 23.34 12 22.68 12 22 C15.96 22 19.92 22 24 22 C24 23.98 24 25.96 24 28 C23.34 28 22.68 28 22 28 C22 29.98 22 31.96 22 34 C21.34 34 20.68 34 20 34 C20 34.66 20 35.32 20 36 C19.34 36 18.68 36 18 36 C18 39.96 18 43.92 18 48 C17.34 48 16.68 48 16 48 C16 48.66 16 49.32 16 50 C14.02 50 12.04 50 10 50 C10 50.66 10 51.32 10 52 C9.34 52 8.68 52 8 52 C8 52.66 8 53.32 8 54 C8.66 54 9.32 54 10 54 C10 54.66 10 55.32 10 56 C10.66 56 11.32 56 12 56 C12 56.66 12 57.32 12 58 C12.66 58 13.32 58 14 58 C14 59.32 14 60.64 14 62 C14.66 62 15.32 62 16 62 C16 62.66 16 63.32 16 64 C16.66 64 17.32 64 18 64 C18 64.66 18 65.32 18 66 C18.66 66 19.32 66 20 66 C20 66.66 20 67.32 20 68 C20.66 68 21.32 68 22 68 C22 70.64 22 73.28 22 76 C22.66 76 23.32 76 24 76 C24 78.64 24 81.28 24 84 C23.34 84 22.68 84 22 84 C22 85.32 22 86.64 22 88 C21.34 88 20.68 88 20 88 C20 88.66 20 89.32 20 90 C19.34 90 18.68 90 18 90 C18 90.66 18 91.32 18 92 C13.38 92 8.76 92 4 92 C4 91.34 4 90.68 4 90 C2.68 90 1.36 90 0 90 C0 89.34 0 88.68 0 88 C-0.66 88 -1.32 88 -2 88 C-2 87.34 -2 86.68 -2 86 C-2.66 86 -3.32 86 -4 86 C-4 85.34 -4 84.68 -4 84 C-4.66 84 -5.32 84 -6 84 C-6 83.34 -6 82.68 -6 82 C-6.66 82 -7.32 82 -8 82 C-8 81.34 -8 80.68 -8 80 C-8.66 80 -9.32 80 -10 80 C-10 78.68 -10 77.36 -10 76 C-10.66 76 -11.32 76 -12 76 C-12 76.66 -12 77.32 -12 78 C-12.66 78 -13.32 78 -14 78 C-14 79.98 -14 81.96 -14 84 C-14.66 84 -15.32 84 -16 84 C-16 85.32 -16 86.64 -16 88 C-19.3 88 -22.6 88 -26 88 C-26 87.34 -26 86.68 -26 86 C-26.66 86 -27.32 86 -28 86 C-28 84.68 -28 83.36 -28 82 C-27.34 82 -26.68 82 -26 82 C-26 81.34 -26 80.68 -26 80 C-29.3 80 -32.6 80 -36 80 C-36 78.02 -36 76.04 -36 74 C-35.34 74 -34.68 74 -34 74 C-34 70.7 -34 67.4 -34 64 C-34.66 64 -35.32 64 -36 64 C-36 62.68 -36 61.36 -36 60 C-36.66 60 -37.32 60 -38 60 C-38 57.36 -38 54.72 -38 52 C-38.66 52 -39.32 52 -40 52 C-40 51.34 -40 50.68 -40 50 C-41.32 50 -42.64 50 -44 50 C-44 50.66 -44 51.32 -44 52 C-44.66 52 -45.32 52 -46 52 C-46 52.66 -46 53.32 -46 54 C-46.66 54 -47.32 54 -48 54 C-48 54.66 -48 55.32 -48 56 C-49.32 56 -50.64 56 -52 56 C-52 56.66 -52 57.32 -52 58 C-53.98 58 -55.96 58 -58 58 C-58 57.34 -58 56.68 -58 56 C-58.66 56 -59.32 56 -60 56 C-60 55.34 -60 54.68 -60 54 C-60.66 54 -61.32 54 -62 54 C-62 53.34 -62 52.68 -62 52 C-62.66 52 -63.32 52 -64 52 C-64 49.36 -64 46.72 -64 44 C-63.34 44 -62.68 44 -62 44 C-62 43.34 -62 42.68 -62 42 C-61.34 42 -60.68 42 -60 42 C-60 41.34 -60 40.68 -60 40 C-59.34 40 -58.68 40 -58 40 C-58 37.36 -58 34.72 -58 32 C-57.34 32 -56.68 32 -56 32 C-56 31.34 -56 30.68 -56 30 C-55.34 30 -54.68 30 -54 30 C-54 26.04 -54 22.08 -54 18 C-53.34 18 -52.68 18 -52 18 C-52 17.34 -52 16.68 -52 16 C-51.34 16 -50.68 16 -50 16 C-50 16.66 -50 17.32 -50 18 C-49.34 18 -48.68 18 -48 18 C-48 20.64 -48 23.28 -48 26 C-47.34 26 -46.68 26 -46 26 C-46 25.34 -46 24.68 -46 24 C-45.34 24 -44.68 24 -44 24 C-44 22.68 -44 21.36 -44 20 C-43.34 20 -42.68 20 -42 20 C-42 19.34 -42 18.68 -42 18 C-41.34 18 -40.68 18 -40 18 C-40 17.34 -40 16.68 -40 16 C-39.34 16 -38.68 16 -38 16 C-38 18.64 -38 21.28 -38 24 C-37.34 24 -36.68 24 -36 24 C-36 23.34 -36 22.68 -36 22 C-35.34 22 -34.68 22 -34 22 C-34 21.34 -34 20.68 -34 20 C-32.68 20 -31.36 20 -30 20 C-30 22.64 -30 25.28 -30 28 C-29.34 28 -28.68 28 -28 28 C-28 26.68 -28 25.36 -28 24 C-27.34 24 -26.68 24 -26 24 C-26 23.34 -26 22.68 -26 22 C-25.34 22 -24.68 22 -24 22 C-24 20.68 -24 19.36 -24 18 C-23.34 18 -22.68 18 -22 18 C-22 17.34 -22 16.68 -22 16 C-21.34 16 -20.68 16 -20 16 C-20 15.34 -20 14.68 -20 14 C-19.34 14 -18.68 14 -18 14 C-18 13.34 -18 12.68 -18 12 C-17.34 12 -16.68 12 -16 12 C-16 11.34 -16 10.68 -16 10 C-15.34 10 -14.68 10 -14 10 C-14 9.34 -14 8.68 -14 8 C-13.34 8 -12.68 8 -12 8 C-12 7.34 -12 6.68 -12 6 C-10.68 6 -9.36 6 -8 6 C-8 5.34 -8 4.68 -8 4 C-6.68 4 -5.36 4 -4 4 C-4 3.34 -4 2.68 -4 2 C-2.68 2 -1.36 2 0 2 C0 1.34 0 0.68 0 0 Z M-32 28 C-32 29.32 -32 30.64 -32 32 C-31.34 32 -30.68 32 -30 32 C-30 30.68 -30 29.36 -30 28 C-30.66 28 -31.32 28 -32 28 Z M2 66 C2 67.32 2 68.64 2 70 C2.66 70 3.32 70 4 70 C4 68.68 4 67.36 4 66 C3.34 66 2.68 66 2 66 Z M4 70 C4 71.32 4 72.64 4 74 C4.66 74 5.32 74 6 74 C6 72.68 6 71.36 6 70 C5.34 70 4.68 70 4 70 Z M-26 76 C-26 77.32 -26 78.64 -26 80 C-25.34 80 -24.68 80 -24 80 C-24 78.68 -24 77.36 -24 76 C-24.66 76 -25.32 76 -26 76 Z " fill="#1AC50D" transform="translate(90,22)"/>
<path d="M0 0 C1.98 0 3.96 0 6 0 C6 3.3 6 6.6 6 10 C5.34 10 4.68 10 4 10 C4 11.98 4 13.96 4 16 C4.66 16 5.32 16 6 16 C6 18.64 6 21.28 6 24 C7.98 24 9.96 24 12 24 C12 23.34 12 22.68 12 22 C15.96 22 19.92 22 24 22 C24 23.98 24 25.96 24 28 C23.34 28 22.68 28 22 28 C22 29.98 22 31.96 22 34 C21.34 34 20.68 34 20 34 C20 34.66 20 35.32 20 36 C19.34 36 18.68 36 18 36 C18 39.96 18 43.92 18 48 C17.34 48 16.68 48 16 48 C16 45.36 16 42.72 16 40 C15.34 40 14.68 40 14 40 C14 38.02 14 36.04 14 34 C13.34 34 12.68 34 12 34 C12 34.66 12 35.32 12 36 C10.02 36 8.04 36 6 36 C6 35.34 6 34.68 6 34 C6.66 34 7.32 34 8 34 C8 33.34 8 32.68 8 32 C6.02 32 4.04 32 2 32 C2 32.66 2 33.32 2 34 C0.68 34 -0.64 34 -2 34 C-2 34.66 -2 35.32 -2 36 C-2.66 36 -3.32 36 -4 36 C-4 36.66 -4 37.32 -4 38 C-5.98 38 -7.96 38 -10 38 C-10 38.66 -10 39.32 -10 40 C-10.66 40 -11.32 40 -12 40 C-12 40.66 -12 41.32 -12 42 C-9.36 42 -6.72 42 -4 42 C-4 42.66 -4 43.32 -4 44 C-5.32 44 -6.64 44 -8 44 C-8 45.98 -8 47.96 -8 50 C-9.32 50 -10.64 50 -12 50 C-12 49.34 -12 48.68 -12 48 C-14.64 48 -17.28 48 -20 48 C-20 47.34 -20 46.68 -20 46 C-18.02 46 -16.04 46 -14 46 C-14 45.34 -14 44.68 -14 44 C-15.98 44 -17.96 44 -20 44 C-20 43.34 -20 42.68 -20 42 C-21.32 42 -22.64 42 -24 42 C-24 41.34 -24 40.68 -24 40 C-27.3 40 -30.6 40 -34 40 C-34 39.34 -34 38.68 -34 38 C-34.66 38 -35.32 38 -36 38 C-36 39.32 -36 40.64 -36 42 C-36.66 42 -37.32 42 -38 42 C-38 39.36 -38 36.72 -38 34 C-39.32 34 -40.64 34 -42 34 C-42 32.68 -42 31.36 -42 30 C-42.66 30 -43.32 30 -44 30 C-44 30.66 -44 31.32 -44 32 C-44.66 32 -45.32 32 -46 32 C-46 32.66 -46 33.32 -46 34 C-47.98 34 -49.96 34 -52 34 C-52 33.34 -52 32.68 -52 32 C-52.66 32 -53.32 32 -54 32 C-54 32.66 -54 33.32 -54 34 C-54.66 34 -55.32 34 -56 34 C-56 35.98 -56 37.96 -56 40 C-54.68 40 -53.36 40 -52 40 C-52 39.34 -52 38.68 -52 38 C-51.34 38 -50.68 38 -50 38 C-50 39.32 -50 40.64 -50 42 C-51.32 42 -52.64 42 -54 42 C-54 42.66 -54 43.32 -54 44 C-54.66 44 -55.32 44 -56 44 C-56 43.34 -56 42.68 -56 42 C-56.66 42 -57.32 42 -58 42 C-58 42.66 -58 43.32 -58 44 C-59.32 44 -60.64 44 -62 44 C-62 43.34 -62 42.68 -62 42 C-61.34 42 -60.68 42 -60 42 C-60 41.34 -60 40.68 -60 40 C-59.34 40 -58.68 40 -58 40 C-58 37.36 -58 34.72 -58 32 C-57.34 32 -56.68 32 -56 32 C-56 31.34 -56 30.68 -56 30 C-55.34 30 -54.68 30 -54 30 C-54 26.04 -54 22.08 -54 18 C-53.34 18 -52.68 18 -52 18 C-52 17.34 -52 16.68 -52 16 C-51.34 16 -50.68 16 -50 16 C-50 16.66 -50 17.32 -50 18 C-49.34 18 -48.68 18 -48 18 C-48 20.64 -48 23.28 -48 26 C-47.34 26 -46.68 26 -46 26 C-46 25.34 -46 24.68 -46 24 C-45.34 24 -44.68 24 -44 24 C-44 22.68 -44 21.36 -44 20 C-43.34 20 -42.68 20 -42 20 C-42 19.34 -42 18.68 -42 18 C-41.34 18 -40.68 18 -40 18 C-40 17.34 -40 16.68 -40 16 C-39.34 16 -38.68 16 -38 16 C-38 18.64 -38 21.28 -38 24 C-37.34 24 -36.68 24 -36 24 C-36 23.34 -36 22.68 -36 22 C-35.34 22 -34.68 22 -34 22 C-34 21.34 -34 20.68 -34 20 C-32.68 20 -31.36 20 -30 20 C-30 22.64 -30 25.28 -30 28 C-29.34 28 -28.68 28 -28 28 C-28 26.68 -28 25.36 -28 24 C-27.34 24 -26.68 24 -26 24 C-26 23.34 -26 22.68 -26 22 C-25.34 22 -24.68 22 -24 22 C-24 20.68 -24 19.36 -24 18 C-23.34 18 -22.68 18 -22 18 C-22 17.34 -22 16.68 -22 16 C-21.34 16 -20.68 16 -20 16 C-20 15.34 -20 14.68 -20 14 C-19.34 14 -18.68 14 -18 14 C-18 13.34 -18 12.68 -18 12 C-17.34 12 -16.68 12 -16 12 C-16 11.34 -16 10.68 -16 10 C-15.34 10 -14.68 10 -14 10 C-14 9.34 -14 8.68 -14 8 C-13.34 8 -12.68 8 -12 8 C-12 7.34 -12 6.68 -12 6 C-10.68 6 -9.36 6 -8 6 C-8 5.34 -8 4.68 -8 4 C-6.68 4 -5.36 4 -4 4 C-4 3.34 -4 2.68 -4 2 C-2.68 2 -1.36 2 0 2 C0 1.34 0 0.68 0 0 Z M-32 28 C-32 29.32 -32 30.64 -32 32 C-31.34 32 -30.68 32 -30 32 C-30 30.68 -30 29.36 -30 28 C-30.66 28 -31.32 28 -32 28 Z " fill="#056D04" transform="translate(90,22)"/>
<path d="M0 0 C3.96 0 7.92 0 12 0 C12 0.66 12 1.32 12 2 C13.32 2 14.64 2 16 2 C16 3.32 16 4.64 16 6 C16.66 6 17.32 6 18 6 C18 6.66 18 7.32 18 8 C16.02 8 14.04 8 12 8 C12 8.66 12 9.32 12 10 C11.34 10 10.68 10 10 10 C10 10.66 10 11.32 10 12 C10.66 12 11.32 12 12 12 C12 12.66 12 13.32 12 14 C12.66 14 13.32 14 14 14 C14 14.66 14 15.32 14 16 C14.66 16 15.32 16 16 16 C16 17.32 16 18.64 16 20 C16.66 20 17.32 20 18 20 C18 20.66 18 21.32 18 22 C18.66 22 19.32 22 20 22 C20 22.66 20 23.32 20 24 C20.66 24 21.32 24 22 24 C22 24.66 22 25.32 22 26 C22.66 26 23.32 26 24 26 C24 28.64 24 31.28 24 34 C24.66 34 25.32 34 26 34 C26 36.64 26 39.28 26 42 C25.34 42 24.68 42 24 42 C24 43.32 24 44.64 24 46 C23.34 46 22.68 46 22 46 C22 44.02 22 42.04 22 40 C20.68 40 19.36 40 18 40 C18 40.66 18 41.32 18 42 C16.68 42 15.36 42 14 42 C14 41.34 14 40.68 14 40 C12.68 40 11.36 40 10 40 C10 39.34 10 38.68 10 38 C9.34 38 8.68 38 8 38 C8 37.34 8 36.68 8 36 C7.34 36 6.68 36 6 36 C6 35.34 6 34.68 6 34 C5.34 34 4.68 34 4 34 C4 32.68 4 31.36 4 30 C3.34 30 2.68 30 2 30 C2 27.36 2 24.72 2 22 C1.34 22 0.68 22 0 22 C0 20.02 0 18.04 0 16 C-0.66 16 -1.32 16 -2 16 C-2 14.68 -2 13.36 -2 12 C-1.34 12 -0.68 12 0 12 C0 12.66 0 13.32 0 14 C1.32 14 2.64 14 4 14 C4 13.34 4 12.68 4 12 C4.66 12 5.32 12 6 12 C6 11.34 6 10.68 6 10 C6.66 10 7.32 10 8 10 C8 7.36 8 4.72 8 2 C5.36 2 2.72 2 0 2 C0 1.34 0 0.68 0 0 Z M4 24 C4 25.32 4 26.64 4 28 C4.66 28 5.32 28 6 28 C6 26.68 6 25.36 6 24 C5.34 24 4.68 24 4 24 Z M6 28 C6 29.32 6 30.64 6 32 C6.66 32 7.32 32 8 32 C8 30.68 8 29.36 8 28 C7.34 28 6.68 28 6 28 Z " fill="#066C05" transform="translate(88,64)"/>
<path d="M0 0 C0.66 0 1.32 0 2 0 C2 1.32 2 2.64 2 4 C3.32 4 4.64 4 6 4 C6 7.3 6 10.6 6 14 C6.66 14 7.32 14 8 14 C8 15.32 8 16.64 8 18 C8.66 18 9.32 18 10 18 C10 18.66 10 19.32 10 20 C8.68 20 7.36 20 6 20 C6 20.66 6 21.32 6 22 C5.34 22 4.68 22 4 22 C4 21.34 4 20.68 4 20 C2.68 20 1.36 20 0 20 C0 20.66 0 21.32 0 22 C-0.66 22 -1.32 22 -2 22 C-2 22.66 -2 23.32 -2 24 C-2.66 24 -3.32 24 -4 24 C-4 24.66 -4 25.32 -4 26 C-5.32 26 -6.64 26 -8 26 C-8 26.66 -8 27.32 -8 28 C-9.98 28 -11.96 28 -14 28 C-14 27.34 -14 26.68 -14 26 C-14.66 26 -15.32 26 -16 26 C-16 25.34 -16 24.68 -16 24 C-16.66 24 -17.32 24 -18 24 C-18 23.34 -18 22.68 -18 22 C-18.66 22 -19.32 22 -20 22 C-20 19.36 -20 16.72 -20 14 C-18.02 14 -16.04 14 -14 14 C-14 13.34 -14 12.68 -14 12 C-13.34 12 -12.68 12 -12 12 C-12 12.66 -12 13.32 -12 14 C-11.34 14 -10.68 14 -10 14 C-10 13.34 -10 12.68 -10 12 C-8.68 12 -7.36 12 -6 12 C-6 10.68 -6 9.36 -6 8 C-6.66 8 -7.32 8 -8 8 C-8 8.66 -8 9.32 -8 10 C-9.32 10 -10.64 10 -12 10 C-12 8.02 -12 6.04 -12 4 C-11.34 4 -10.68 4 -10 4 C-10 3.34 -10 2.68 -10 2 C-9.34 2 -8.68 2 -8 2 C-8 2.66 -8 3.32 -8 4 C-6.02 4 -4.04 4 -2 4 C-2 3.34 -2 2.68 -2 2 C-1.34 2 -0.68 2 0 2 C0 1.34 0 0.68 0 0 Z " fill="#1ACC0C" transform="translate(46,52)"/>
<path d="M0 0 C3.96 0 7.92 0 12 0 C12 1.98 12 3.96 12 6 C11.34 6 10.68 6 10 6 C10 7.98 10 9.96 10 12 C9.34 12 8.68 12 8 12 C8 12.66 8 13.32 8 14 C7.34 14 6.68 14 6 14 C6 17.96 6 21.92 6 26 C5.34 26 4.68 26 4 26 C4 23.36 4 20.72 4 18 C3.34 18 2.68 18 2 18 C2 16.02 2 14.04 2 12 C1.34 12 0.68 12 0 12 C0 12.66 0 13.32 0 14 C-1.98 14 -3.96 14 -6 14 C-6 13.34 -6 12.68 -6 12 C-5.34 12 -4.68 12 -4 12 C-4 11.34 -4 10.68 -4 10 C-5.98 10 -7.96 10 -10 10 C-10 10.66 -10 11.32 -10 12 C-11.32 12 -12.64 12 -14 12 C-14 12.66 -14 13.32 -14 14 C-14.66 14 -15.32 14 -16 14 C-16 14.66 -16 15.32 -16 16 C-17.98 16 -19.96 16 -22 16 C-22 16.66 -22 17.32 -22 18 C-22.66 18 -23.32 18 -24 18 C-24 18.66 -24 19.32 -24 20 C-21.36 20 -18.72 20 -16 20 C-16 20.66 -16 21.32 -16 22 C-17.32 22 -18.64 22 -20 22 C-20 23.98 -20 25.96 -20 28 C-21.32 28 -22.64 28 -24 28 C-24 27.34 -24 26.68 -24 26 C-26.64 26 -29.28 26 -32 26 C-32 25.34 -32 24.68 -32 24 C-30.02 24 -28.04 24 -26 24 C-26 23.34 -26 22.68 -26 22 C-27.98 22 -29.96 22 -32 22 C-32 20.68 -32 19.36 -32 18 C-31.34 18 -30.68 18 -30 18 C-30 17.34 -30 16.68 -30 16 C-28.68 16 -27.36 16 -26 16 C-26 15.34 -26 14.68 -26 14 C-25.34 14 -24.68 14 -24 14 C-24 13.34 -24 12.68 -24 12 C-22.02 12 -20.04 12 -18 12 C-18 11.34 -18 10.68 -18 10 C-16.68 10 -15.36 10 -14 10 C-14 9.34 -14 8.68 -14 8 C-12.68 8 -11.36 8 -10 8 C-10 7.34 -10 6.68 -10 6 C-8.02 6 -6.04 6 -4 6 C-4 5.34 -4 4.68 -4 4 C-2.68 4 -1.36 4 0 4 C0 2.68 0 1.36 0 0 Z " fill="#0F8F0A" transform="translate(102,44)"/>
<path d="M0 0 C1.98 0 3.96 0 6 0 C6 0.66 6 1.32 6 2 C5.34 2 4.68 2 4 2 C4 2.66 4 3.32 4 4 C5.98 4 7.96 4 10 4 C10 3.34 10 2.68 10 2 C10.66 2 11.32 2 12 2 C12 3.98 12 5.96 12 8 C12.66 8 13.32 8 14 8 C14 10.64 14 13.28 14 16 C13.34 16 12.68 16 12 16 C12 14.68 12 13.36 12 12 C10.68 12 9.36 12 8 12 C8 11.34 8 10.68 8 10 C4.04 10 0.08 10 -4 10 C-4 10.66 -4 11.32 -4 12 C-1.36 12 1.28 12 4 12 C4 14.64 4 17.28 4 20 C3.34 20 2.68 20 2 20 C2 20.66 2 21.32 2 22 C1.34 22 0.68 22 0 22 C0 22.66 0 23.32 0 24 C-1.32 24 -2.64 24 -4 24 C-4 23.34 -4 22.68 -4 22 C-5.32 22 -6.64 22 -8 22 C-8 21.34 -8 20.68 -8 20 C-8.66 20 -9.32 20 -10 20 C-10 17.36 -10 14.72 -10 12 C-8.68 12 -7.36 12 -6 12 C-6 11.34 -6 10.68 -6 10 C-8.64 10 -11.28 10 -14 10 C-14 9.34 -14 8.68 -14 8 C-13.34 8 -12.68 8 -12 8 C-12 7.34 -12 6.68 -12 6 C-10.02 6 -8.04 6 -6 6 C-6 5.34 -6 4.68 -6 4 C-5.34 4 -4.68 4 -4 4 C-4 3.34 -4 2.68 -4 2 C-2.68 2 -1.36 2 0 2 C0 1.34 0 0.68 0 0 Z " fill="#1CCA0D" transform="translate(92,54)"/>
<path d="M0 0 C0.66 0 1.32 0 2 0 C2 0.66 2 1.32 2 2 C3.32 2 4.64 2 6 2 C6 2.66 6 3.32 6 4 C6.66 4 7.32 4 8 4 C8 3.34 8 2.68 8 2 C8.66 2 9.32 2 10 2 C10 2.66 10 3.32 10 4 C11.32 4 12.64 4 14 4 C14 4.66 14 5.32 14 6 C15.32 6 16.64 6 18 6 C18 5.34 18 4.68 18 4 C19.32 4 20.64 4 22 4 C22 6.64 22 9.28 22 12 C21.34 12 20.68 12 20 12 C20 12.66 20 13.32 20 14 C15.38 14 10.76 14 6 14 C6 13.34 6 12.68 6 12 C4.68 12 3.36 12 2 12 C2 11.34 2 10.68 2 10 C1.34 10 0.68 10 0 10 C0 9.34 0 8.68 0 8 C-0.66 8 -1.32 8 -2 8 C-2 6.68 -2 5.36 -2 4 C-1.34 4 -0.68 4 0 4 C0 2.68 0 1.36 0 0 Z " fill="#108D0A" transform="translate(88,100)"/>
<path d="M0 0 C0.66 0 1.32 0 2 0 C2 1.32 2 2.64 2 4 C3.32 4 4.64 4 6 4 C6 6.64 6 9.28 6 12 C5.34 12 4.68 12 4 12 C4 13.32 4 14.64 4 16 C3.34 16 2.68 16 2 16 C2 16.66 2 17.32 2 18 C0.02 18 -1.96 18 -4 18 C-4 17.34 -4 16.68 -4 16 C-4.66 16 -5.32 16 -6 16 C-6 15.34 -6 14.68 -6 14 C-6.66 14 -7.32 14 -8 14 C-8 13.34 -8 12.68 -8 12 C-7.34 12 -6.68 12 -6 12 C-6 10.68 -6 9.36 -6 8 C-6.66 8 -7.32 8 -8 8 C-8 8.66 -8 9.32 -8 10 C-9.32 10 -10.64 10 -12 10 C-12 8.02 -12 6.04 -12 4 C-11.34 4 -10.68 4 -10 4 C-10 3.34 -10 2.68 -10 2 C-9.34 2 -8.68 2 -8 2 C-8 2.66 -8 3.32 -8 4 C-6.02 4 -4.04 4 -2 4 C-2 3.34 -2 2.68 -2 2 C-1.34 2 -0.68 2 0 2 C0 1.34 0 0.68 0 0 Z " fill="#1CCB0D" transform="translate(46,52)"/>
<path d="M0 0 C0.66 0 1.32 0 2 0 C2 0.66 2 1.32 2 2 C2.66 2 3.32 2 4 2 C4 4.64 4 7.28 4 10 C4.66 10 5.32 10 6 10 C6 9.34 6 8.68 6 8 C6.66 8 7.32 8 8 8 C8 10.64 8 13.28 8 16 C7.34 16 6.68 16 6 16 C6 16.66 6 17.32 6 18 C4.02 18 2.04 18 0 18 C0 17.34 0 16.68 0 16 C-0.66 16 -1.32 16 -2 16 C-2 16.66 -2 17.32 -2 18 C-2.66 18 -3.32 18 -4 18 C-4 19.98 -4 21.96 -4 24 C-2.68 24 -1.36 24 0 24 C0 23.34 0 22.68 0 22 C0.66 22 1.32 22 2 22 C2 23.32 2 24.64 2 26 C0.68 26 -0.64 26 -2 26 C-2 26.66 -2 27.32 -2 28 C-2.66 28 -3.32 28 -4 28 C-4 27.34 -4 26.68 -4 26 C-4.66 26 -5.32 26 -6 26 C-6 26.66 -6 27.32 -6 28 C-7.32 28 -8.64 28 -10 28 C-10 27.34 -10 26.68 -10 26 C-9.34 26 -8.68 26 -8 26 C-8 25.34 -8 24.68 -8 24 C-7.34 24 -6.68 24 -6 24 C-6 21.36 -6 18.72 -6 16 C-5.34 16 -4.68 16 -4 16 C-4 15.34 -4 14.68 -4 14 C-3.34 14 -2.68 14 -2 14 C-2 10.04 -2 6.08 -2 2 C-1.34 2 -0.68 2 0 2 C0 1.34 0 0.68 0 0 Z " fill="#138B0A" transform="translate(38,38)"/>
<path d="M0 0 C1.32 0 2.64 0 4 0 C4 1.32 4 2.64 4 4 C2.68 4 1.36 4 0 4 C0 4.66 0 5.32 0 6 C-0.66 6 -1.32 6 -2 6 C-2 6.66 -2 7.32 -2 8 C-3.98 8 -5.96 8 -8 8 C-8 8.66 -8 9.32 -8 10 C-8.66 10 -9.32 10 -10 10 C-10 10.66 -10 11.32 -10 12 C-7.36 12 -4.72 12 -2 12 C-2 12.66 -2 13.32 -2 14 C-3.32 14 -4.64 14 -6 14 C-6 15.98 -6 17.96 -6 20 C-7.32 20 -8.64 20 -10 20 C-10 19.34 -10 18.68 -10 18 C-12.64 18 -15.28 18 -18 18 C-18 17.34 -18 16.68 -18 16 C-16.02 16 -14.04 16 -12 16 C-12 15.34 -12 14.68 -12 14 C-13.98 14 -15.96 14 -18 14 C-18 12.68 -18 11.36 -18 10 C-17.34 10 -16.68 10 -16 10 C-16 9.34 -16 8.68 -16 8 C-14.68 8 -13.36 8 -12 8 C-12 7.34 -12 6.68 -12 6 C-11.34 6 -10.68 6 -10 6 C-10 5.34 -10 4.68 -10 4 C-8.02 4 -6.04 4 -4 4 C-4 3.34 -4 2.68 -4 2 C-2.68 2 -1.36 2 0 2 C0 1.34 0 0.68 0 0 Z " fill="#12BC0A" transform="translate(88,52)"/>
<path d="M0 0 C1.32 0 2.64 0 4 0 C4 1.32 4 2.64 4 4 C4.66 4 5.32 4 6 4 C6 4.66 6 5.32 6 6 C6.66 6 7.32 6 8 6 C8 6.66 8 7.32 8 8 C8.66 8 9.32 8 10 8 C10 11.96 10 15.92 10 20 C9.34 20 8.68 20 8 20 C8 18.68 8 17.36 8 16 C7.34 16 6.68 16 6 16 C6 16.66 6 17.32 6 18 C5.34 18 4.68 18 4 18 C4 19.98 4 21.96 4 24 C3.34 24 2.68 24 2 24 C2 23.34 2 22.68 2 22 C1.34 22 0.68 22 0 22 C0 14.74 0 7.48 0 0 Z " fill="#18A30E" transform="translate(72,82)"/>
<path d="M0 0 C0.66 0 1.32 0 2 0 C2 0.66 2 1.32 2 2 C2.66 2 3.32 2 4 2 C4 2.66 4 3.32 4 4 C4.66 4 5.32 4 6 4 C6 4.66 6 5.32 6 6 C7.32 6 8.64 6 10 6 C10 5.34 10 4.68 10 4 C10.66 4 11.32 4 12 4 C12 8.62 12 13.24 12 18 C10.68 18 9.36 18 8 18 C8 17.34 8 16.68 8 16 C4.7 16 1.4 16 -2 16 C-2 14.02 -2 12.04 -2 10 C-1.34 10 -0.68 10 0 10 C0 6.7 0 3.4 0 0 Z M8 12 C8 13.32 8 14.64 8 16 C8.66 16 9.32 16 10 16 C10 14.68 10 13.36 10 12 C9.34 12 8.68 12 8 12 Z " fill="#070904" transform="translate(56,86)"/>
<path d="M0 0 C0.66 0 1.32 0 2 0 C2 2.64 2 5.28 2 8 C2.66 8 3.32 8 4 8 C4 7.34 4 6.68 4 6 C4.66 6 5.32 6 6 6 C6 5.34 6 4.68 6 4 C7.32 4 8.64 4 10 4 C10 6.64 10 9.28 10 12 C10.66 12 11.32 12 12 12 C12 10.68 12 9.36 12 8 C12.66 8 13.32 8 14 8 C14 7.34 14 6.68 14 6 C14.66 6 15.32 6 16 6 C16 7.32 16 8.64 16 10 C15.34 10 14.68 10 14 10 C14 11.32 14 12.64 14 14 C13.34 14 12.68 14 12 14 C12 15.98 12 17.96 12 20 C12.66 20 13.32 20 14 20 C14 20.66 14 21.32 14 22 C12.68 22 11.36 22 10 22 C10 21.34 10 20.68 10 20 C9.34 20 8.68 20 8 20 C8 19.34 8 18.68 8 18 C7.34 18 6.68 18 6 18 C6 17.34 6 16.68 6 16 C5.34 16 4.68 16 4 16 C4 14.02 4 12.04 4 10 C3.34 10 2.68 10 2 10 C2 10.66 2 11.32 2 12 C1.34 12 0.68 12 0 12 C0 9.36 0 6.72 0 4 C-0.66 4 -1.32 4 -2 4 C-2 3.34 -2 2.68 -2 2 C-1.34 2 -0.68 2 0 2 C0 1.34 0 0.68 0 0 Z M8 12 C8 13.32 8 14.64 8 16 C8.66 16 9.32 16 10 16 C10 14.68 10 13.36 10 12 C9.34 12 8.68 12 8 12 Z " fill="#0C870A" transform="translate(50,38)"/>
<path d="M0 0 C0.66 0 1.32 0 2 0 C2 0.66 2 1.32 2 2 C4.64 2 7.28 2 10 2 C10 4.64 10 7.28 10 10 C9.34 10 8.68 10 8 10 C8 10.66 8 11.32 8 12 C7.34 12 6.68 12 6 12 C6 12.66 6 13.32 6 14 C4.68 14 3.36 14 2 14 C2 13.34 2 12.68 2 12 C0.68 12 -0.64 12 -2 12 C-2 11.34 -2 10.68 -2 10 C-2.66 10 -3.32 10 -4 10 C-4 7.36 -4 4.72 -4 2 C-2.68 2 -1.36 2 0 2 C0 1.34 0 0.68 0 0 Z " fill="#18BF0B" transform="translate(86,64)"/>
<path d="M0 0 C1.32 0 2.64 0 4 0 C4 2.64 4 5.28 4 8 C4.66 8 5.32 8 6 8 C6 7.34 6 6.68 6 6 C6.66 6 7.32 6 8 6 C8 7.98 8 9.96 8 12 C8.66 12 9.32 12 10 12 C10 12.66 10 13.32 10 14 C10.66 14 11.32 14 12 14 C12 14.66 12 15.32 12 16 C12.66 16 13.32 16 14 16 C14 16.66 14 17.32 14 18 C15.32 18 16.64 18 18 18 C18 18.66 18 19.32 18 20 C15.36 20 12.72 20 10 20 C10 19.34 10 18.68 10 18 C9.34 18 8.68 18 8 18 C8 19.32 8 20.64 8 22 C7.34 22 6.68 22 6 22 C6 19.36 6 16.72 6 14 C4.68 14 3.36 14 2 14 C2 12.68 2 11.36 2 10 C1.34 10 0.68 10 0 10 C0 6.7 0 3.4 0 0 Z " fill="#048003" transform="translate(46,42)"/>
<path d="M0 0 C1.32 0 2.64 0 4 0 C4 0.66 4 1.32 4 2 C3.34 2 2.68 2 2 2 C2 3.32 2 4.64 2 6 C2.66 6 3.32 6 4 6 C4 5.34 4 4.68 4 4 C5.32 4 6.64 4 8 4 C8 4.66 8 5.32 8 6 C8.66 6 9.32 6 10 6 C10 6.66 10 7.32 10 8 C10.66 8 11.32 8 12 8 C12 9.32 12 10.64 12 12 C12.66 12 13.32 12 14 12 C14 14.64 14 17.28 14 20 C13.34 20 12.68 20 12 20 C12 19.34 12 18.68 12 18 C10.68 18 9.36 18 8 18 C8 17.34 8 16.68 8 16 C7.34 16 6.68 16 6 16 C6 15.34 6 14.68 6 14 C5.34 14 4.68 14 4 14 C4 13.34 4 12.68 4 12 C3.34 12 2.68 12 2 12 C2 10.68 2 9.36 2 8 C1.34 8 0.68 8 0 8 C0 5.36 0 2.72 0 0 Z M4 6 C4 7.32 4 8.64 4 10 C4.66 10 5.32 10 6 10 C6 8.68 6 7.36 6 6 C5.34 6 4.68 6 4 6 Z " fill="#090B06" transform="translate(90,86)"/>
<path d="M0 0 C1.32 0 2.64 0 4 0 C4 0.66 4 1.32 4 2 C4.66 2 5.32 2 6 2 C6 3.32 6 4.64 6 6 C6.66 6 7.32 6 8 6 C8 6.66 8 7.32 8 8 C9.32 8 10.64 8 12 8 C12 8.66 12 9.32 12 10 C12.66 10 13.32 10 14 10 C14 11.32 14 12.64 14 14 C13.34 14 12.68 14 12 14 C12 13.34 12 12.68 12 12 C10.68 12 9.36 12 8 12 C8 11.34 8 10.68 8 10 C7.34 10 6.68 10 6 10 C6 11.32 6 12.64 6 14 C5.34 14 4.68 14 4 14 C4 14.66 4 15.32 4 16 C3.34 16 2.68 16 2 16 C2 15.34 2 14.68 2 14 C1.34 14 0.68 14 0 14 C0 9.38 0 4.76 0 0 Z " fill="#1BBF0D" transform="translate(82,90)"/>
<path d="M0 0 C3.96 0 7.92 0 12 0 C12 1.98 12 3.96 12 6 C8.04 6 4.08 6 0 6 C0 6.66 0 7.32 0 8 C-3.3 8 -6.6 8 -10 8 C-10 7.34 -10 6.68 -10 6 C-8.02 6 -6.04 6 -4 6 C-4 5.34 -4 4.68 -4 4 C-2.68 4 -1.36 4 0 4 C0 2.68 0 1.36 0 0 Z " fill="#19CB0C" transform="translate(102,44)"/>
<path d="M0 0 C0.66 0 1.32 0 2 0 C2 0.66 2 1.32 2 2 C2.66 2 3.32 2 4 2 C4 3.32 4 4.64 4 6 C4.66 6 5.32 6 6 6 C6 6.66 6 7.32 6 8 C6.66 8 7.32 8 8 8 C8 9.32 8 10.64 8 12 C8.66 12 9.32 12 10 12 C10 13.32 10 14.64 10 16 C10.66 16 11.32 16 12 16 C12 16.66 12 17.32 12 18 C10.68 18 9.36 18 8 18 C8 17.34 8 16.68 8 16 C7.34 16 6.68 16 6 16 C6 15.34 6 14.68 6 14 C5.34 14 4.68 14 4 14 C4 13.34 4 12.68 4 12 C2.68 12 1.36 12 0 12 C0 8.04 0 4.08 0 0 Z " fill="#BCBCB1" transform="translate(54,74)"/>
<path d="M0 0 C1.32 0 2.64 0 4 0 C4 0.66 4 1.32 4 2 C6.64 2 9.28 2 12 2 C12 2.66 12 3.32 12 4 C10.68 4 9.36 4 8 4 C8 5.98 8 7.96 8 10 C6.68 10 5.36 10 4 10 C4 9.34 4 8.68 4 8 C1.36 8 -1.28 8 -4 8 C-4 7.34 -4 6.68 -4 6 C-2.02 6 -0.04 6 2 6 C2 5.34 2 4.68 2 4 C0.02 4 -1.96 4 -4 4 C-4 3.34 -4 2.68 -4 2 C-2.68 2 -1.36 2 0 2 C0 1.34 0 0.68 0 0 Z " fill="#0B6A06" transform="translate(74,62)"/>
<path d="M0 0 C0.66 0 1.32 0 2 0 C2 0.66 2 1.32 2 2 C2.66 2 3.32 2 4 2 C4 2.66 4 3.32 4 4 C4.66 4 5.32 4 6 4 C6 4.66 6 5.32 6 6 C6.66 6 7.32 6 8 6 C8 7.32 8 8.64 8 10 C7.34 10 6.68 10 6 10 C6 11.32 6 12.64 6 14 C4.02 14 2.04 14 0 14 C0 9.38 0 4.76 0 0 Z " fill="#047603" transform="translate(56,86)"/>
<path d="M0 0 C0.66 0 1.32 0 2 0 C2 1.32 2 2.64 2 4 C3.32 4 4.64 4 6 4 C6 4.66 6 5.32 6 6 C5.34 6 4.68 6 4 6 C4 6.66 4 7.32 4 8 C2.68 8 1.36 8 0 8 C0 8.66 0 9.32 0 10 C-1.98 10 -3.96 10 -6 10 C-6 9.34 -6 8.68 -6 8 C-6.66 8 -7.32 8 -8 8 C-8 7.34 -8 6.68 -8 6 C-8.66 6 -9.32 6 -10 6 C-10 5.34 -10 4.68 -10 4 C-7.36 4 -4.72 4 -2 4 C-2 3.34 -2 2.68 -2 2 C-1.34 2 -0.68 2 0 2 C0 1.34 0 0.68 0 0 Z " fill="#0E5A09" transform="translate(38,70)"/>
<path d="M0 0 C3.96 0 7.92 0 12 0 C12 0.66 12 1.32 12 2 C13.32 2 14.64 2 16 2 C16 3.32 16 4.64 16 6 C16.66 6 17.32 6 18 6 C18 6.66 18 7.32 18 8 C14.7 8 11.4 8 8 8 C8 6.02 8 4.04 8 2 C5.36 2 2.72 2 0 2 C0 1.34 0 0.68 0 0 Z " fill="#0C8B07" transform="translate(88,64)"/>
<path d="M0 0 C0.66 0 1.32 0 2 0 C2 0.66 2 1.32 2 2 C2.66 2 3.32 2 4 2 C4 2.66 4 3.32 4 4 C4.66 4 5.32 4 6 4 C6 7.96 6 11.92 6 16 C5.34 16 4.68 16 4 16 C4 14.68 4 13.36 4 12 C3.34 12 2.68 12 2 12 C2 12.66 2 13.32 2 14 C1.34 14 0.68 14 0 14 C0 9.38 0 4.76 0 0 Z " fill="#061004" transform="translate(76,86)"/>
<path d="M0 0 C0.66 0 1.32 0 2 0 C2 1.32 2 2.64 2 4 C1.34 4 0.68 4 0 4 C0 5.32 0 6.64 0 8 C-0.66 8 -1.32 8 -2 8 C-2 9.98 -2 11.96 -2 14 C-1.34 14 -0.68 14 0 14 C0 14.66 0 15.32 0 16 C-1.32 16 -2.64 16 -4 16 C-4 15.34 -4 14.68 -4 14 C-4.66 14 -5.32 14 -6 14 C-6 13.34 -6 12.68 -6 12 C-6.66 12 -7.32 12 -8 12 C-8 11.34 -8 10.68 -8 10 C-8.66 10 -9.32 10 -10 10 C-10 8.68 -10 7.36 -10 6 C-8.68 6 -7.36 6 -6 6 C-6 7.32 -6 8.64 -6 10 C-5.34 10 -4.68 10 -4 10 C-4 8.68 -4 7.36 -4 6 C-3.34 6 -2.68 6 -2 6 C-2 4.68 -2 3.36 -2 2 C-1.34 2 -0.68 2 0 2 C0 1.34 0 0.68 0 0 Z " fill="#0A0F07" transform="translate(64,44)"/>
<path d="M0 0 C1.32 0 2.64 0 4 0 C4 0.66 4 1.32 4 2 C5.32 2 6.64 2 8 2 C8 1.34 8 0.68 8 0 C9.32 0 10.64 0 12 0 C12 1.98 12 3.96 12 6 C10.68 6 9.36 6 8 6 C8 5.34 8 4.68 8 4 C7.34 4 6.68 4 6 4 C6 4.66 6 5.32 6 6 C4.02 6 2.04 6 0 6 C0 4.02 0 2.04 0 0 Z " fill="#1BCB0D" transform="translate(98,104)"/>
<path d="M0 0 C0.66 0 1.32 0 2 0 C2 1.32 2 2.64 2 4 C1.34 4 0.68 4 0 4 C0 5.98 0 7.96 0 10 C1.32 10 2.64 10 4 10 C4 9.34 4 8.68 4 8 C4.66 8 5.32 8 6 8 C6 9.32 6 10.64 6 12 C4.68 12 3.36 12 2 12 C2 12.66 2 13.32 2 14 C1.34 14 0.68 14 0 14 C0 13.34 0 12.68 0 12 C-0.66 12 -1.32 12 -2 12 C-2 12.66 -2 13.32 -2 14 C-3.32 14 -4.64 14 -6 14 C-6 13.34 -6 12.68 -6 12 C-5.34 12 -4.68 12 -4 12 C-4 11.34 -4 10.68 -4 10 C-3.34 10 -2.68 10 -2 10 C-2 7.36 -2 4.72 -2 2 C-1.34 2 -0.68 2 0 2 C0 1.34 0 0.68 0 0 Z " fill="#186D22" transform="translate(34,52)"/>
<path d="M0 0 C0.66 0 1.32 0 2 0 C2 1.98 2 3.96 2 6 C2.66 6 3.32 6 4 6 C4 8.64 4 11.28 4 14 C5.98 14 7.96 14 10 14 C10 14.66 10 15.32 10 16 C8.68 16 7.36 16 6 16 C6 16.66 6 17.32 6 18 C4.02 18 2.04 18 0 18 C0 17.34 0 16.68 0 16 C0.66 16 1.32 16 2 16 C2 13.36 2 10.72 2 8 C1.34 8 0.68 8 0 8 C0 5.36 0 2.72 0 0 Z " fill="#060904" transform="translate(92,32)"/>
<path d="M0 0 C0.66 0 1.32 0 2 0 C2 1.32 2 2.64 2 4 C2.66 4 3.32 4 4 4 C4 3.34 4 2.68 4 2 C5.32 2 6.64 2 8 2 C8 2.66 8 3.32 8 4 C8.66 4 9.32 4 10 4 C10 5.32 10 6.64 10 8 C6.7 8 3.4 8 0 8 C0 5.36 0 2.72 0 0 Z " fill="#127C0F" transform="translate(26,66)"/>
<path d="M0 0 C0.66 0 1.32 0 2 0 C2 0.66 2 1.32 2 2 C2.66 2 3.32 2 4 2 C4 3.32 4 4.64 4 6 C4.66 6 5.32 6 6 6 C6 8.64 6 11.28 6 14 C5.34 14 4.68 14 4 14 C4 13.34 4 12.68 4 12 C2.68 12 1.36 12 0 12 C0 10.68 0 9.36 0 8 C0.66 8 1.32 8 2 8 C2 6.68 2 5.36 2 4 C1.34 4 0.68 4 0 4 C0 2.68 0 1.36 0 0 Z " fill="#010200" transform="translate(98,92)"/>
<path d="M0 0 C1.32 0 2.64 0 4 0 C4 2.64 4 5.28 4 8 C4.66 8 5.32 8 6 8 C6 7.34 6 6.68 6 6 C6.66 6 7.32 6 8 6 C8 7.32 8 8.64 8 10 C5.36 10 2.72 10 0 10 C0 6.7 0 3.4 0 0 Z " fill="#15C909" transform="translate(46,42)"/>
<path d="M0 0 C0.66 0 1.32 0 2 0 C2 0.66 2 1.32 2 2 C2.66 2 3.32 2 4 2 C4 3.32 4 4.64 4 6 C4.66 6 5.32 6 6 6 C6 6.66 6 7.32 6 8 C4.68 8 3.36 8 2 8 C2 8.66 2 9.32 2 10 C1.34 10 0.68 10 0 10 C0 9.34 0 8.68 0 8 C-1.32 8 -2.64 8 -4 8 C-4 7.34 -4 6.68 -4 6 C-3.34 6 -2.68 6 -2 6 C-2 5.34 -2 4.68 -2 4 C-1.34 4 -0.68 4 0 4 C0 2.68 0 1.36 0 0 Z " fill="#051303" transform="translate(50,64)"/>
<path d="M0 0 C0.66 0 1.32 0 2 0 C2 0.66 2 1.32 2 2 C4.64 2 7.28 2 10 2 C10 3.32 10 4.64 10 6 C9.34 6 8.68 6 8 6 C8 5.34 8 4.68 8 4 C6.02 4 4.04 4 2 4 C2 5.32 2 6.64 2 8 C0.68 8 -0.64 8 -2 8 C-2 6.02 -2 4.04 -2 2 C-1.34 2 -0.68 2 0 2 C0 1.34 0 0.68 0 0 Z " fill="#16C80C" transform="translate(36,54)"/>
<path d="M0 0 C1.32 0 2.64 0 4 0 C4 1.32 4 2.64 4 4 C2.68 4 1.36 4 0 4 C0 4.66 0 5.32 0 6 C-0.66 6 -1.32 6 -2 6 C-2 6.66 -2 7.32 -2 8 C-3.98 8 -5.96 8 -8 8 C-8 7.34 -8 6.68 -8 6 C-6.68 6 -5.36 6 -4 6 C-4 4.68 -4 3.36 -4 2 C-2.68 2 -1.36 2 0 2 C0 1.34 0 0.68 0 0 Z " fill="#0CB506" transform="translate(88,52)"/>
<path d="M0 0 C1.98 0 3.96 0 6 0 C6 4.62 6 9.24 6 14 C5.34 14 4.68 14 4 14 C4 10.04 4 6.08 4 2 C2.68 2 1.36 2 0 2 C0 1.34 0 0.68 0 0 Z " fill="#19C912" transform="translate(64,88)"/>
<path d="M0 0 C0.66 0 1.32 0 2 0 C2 1.32 2 2.64 2 4 C1.34 4 0.68 4 0 4 C0 4.66 0 5.32 0 6 C-1.98 6 -3.96 6 -6 6 C-6 6.66 -6 7.32 -6 8 C-6.66 8 -7.32 8 -8 8 C-8 7.34 -8 6.68 -8 6 C-8.66 6 -9.32 6 -10 6 C-10 5.34 -10 4.68 -10 4 C-7.36 4 -4.72 4 -2 4 C-2 3.34 -2 2.68 -2 2 C-1.34 2 -0.68 2 0 2 C0 1.34 0 0.68 0 0 Z " fill="#060B04" transform="translate(38,70)"/>
<path d="M0 0 C0.66 0 1.32 0 2 0 C2 2.64 2 5.28 2 8 C2.66 8 3.32 8 4 8 C4 7.34 4 6.68 4 6 C4.66 6 5.32 6 6 6 C6 7.98 6 9.96 6 12 C5.34 12 4.68 12 4 12 C4 11.34 4 10.68 4 10 C2.68 10 1.36 10 0 10 C0 6.7 0 3.4 0 0 Z " fill="#070A05" transform="translate(40,40)"/>
<path d="M0 0 C0.66 0 1.32 0 2 0 C2 0.66 2 1.32 2 2 C2.66 2 3.32 2 4 2 C4 5.96 4 9.92 4 14 C3.34 14 2.68 14 2 14 C2 10.7 2 7.4 2 4 C1.34 4 0.68 4 0 4 C0 2.68 0 1.36 0 0 Z " fill="#086D06" transform="translate(78,88)"/>
<path d="M0 0 C1.32 0 2.64 0 4 0 C4 0.66 4 1.32 4 2 C3.34 2 2.68 2 2 2 C2 2.66 2 3.32 2 4 C2.66 4 3.32 4 4 4 C4 4.66 4 5.32 4 6 C1.36 6 -1.28 6 -4 6 C-4 5.34 -4 4.68 -4 4 C-3.34 4 -2.68 4 -2 4 C-2 3.34 -2 2.68 -2 2 C-1.34 2 -0.68 2 0 2 C0 1.34 0 0.68 0 0 Z " fill="#082106" transform="translate(96,72)"/>
<path d="M0 0 C3.96 0 7.92 0 12 0 C12 1.98 12 3.96 12 6 C11.34 6 10.68 6 10 6 C10 4.68 10 3.36 10 2 C6.7 2 3.4 2 0 2 C0 1.34 0 0.68 0 0 Z " fill="#0B0C07" transform="translate(102,44)"/>
<path d="M0 0 C0.66 0 1.32 0 2 0 C2 2.64 2 5.28 2 8 C2.66 8 3.32 8 4 8 C4 8.66 4 9.32 4 10 C3.34 10 2.68 10 2 10 C2 10.66 2 11.32 2 12 C1.34 12 0.68 12 0 12 C0 9.36 0 6.72 0 4 C-0.66 4 -1.32 4 -2 4 C-2 3.34 -2 2.68 -2 2 C-1.34 2 -0.68 2 0 2 C0 1.34 0 0.68 0 0 Z " fill="#0F110B" transform="translate(50,38)"/>
<path d="M0 0 C0.66 0 1.32 0 2 0 C2 0.66 2 1.32 2 2 C2.66 2 3.32 2 4 2 C4 1.34 4 0.68 4 0 C4.66 0 5.32 0 6 0 C6 1.32 6 2.64 6 4 C2.7 4 -0.6 4 -4 4 C-4 3.34 -4 2.68 -4 2 C-2.68 2 -1.36 2 0 2 C0 1.34 0 0.68 0 0 Z " fill="#070904" transform="translate(68,106)"/>
<path d="M0 0 C1.32 0 2.64 0 4 0 C4 1.98 4 3.96 4 6 C3.34 6 2.68 6 2 6 C2 6.66 2 7.32 2 8 C1.34 8 0.68 8 0 8 C0 5.36 0 2.72 0 0 Z " fill="#15B00C" transform="translate(72,82)"/>
<path d="M0 0 C0.66 0 1.32 0 2 0 C2 0.66 2 1.32 2 2 C3.32 2 4.64 2 6 2 C6 3.32 6 4.64 6 6 C4.02 6 2.04 6 0 6 C0 4.02 0 2.04 0 0 Z " fill="#149B0B" transform="translate(40,68)"/>
<path d="M0 0 C1.98 0 3.96 0 6 0 C6 3.3 6 6.6 6 10 C5.34 10 4.68 10 4 10 C4 7.36 4 4.72 4 2 C2.68 2 1.36 2 0 2 C0 1.34 0 0.68 0 0 Z " fill="#060803" transform="translate(90,22)"/>
<path d="M0 0 C1.98 0 3.96 0 6 0 C6 1.32 6 2.64 6 4 C4.02 4 2.04 4 0 4 C0 2.68 0 1.36 0 0 Z " fill="#15860E" transform="translate(62,104)"/>
<path d="M0 0 C0.66 0 1.32 0 2 0 C2 0.66 2 1.32 2 2 C2.66 2 3.32 2 4 2 C4 2.66 4 3.32 4 4 C3.34 4 2.68 4 2 4 C2 5.98 2 7.96 2 10 C1.34 10 0.68 10 0 10 C0 6.7 0 3.4 0 0 Z " fill="#0A0B07" transform="translate(56,86)"/>
<path d="M0 0 C0.66 0 1.32 0 2 0 C2 0.66 2 1.32 2 2 C2.66 2 3.32 2 4 2 C4 3.32 4 4.64 4 6 C4.66 6 5.32 6 6 6 C6 6.66 6 7.32 6 8 C4.68 8 3.36 8 2 8 C2 6.68 2 5.36 2 4 C1.34 4 0.68 4 0 4 C0 2.68 0 1.36 0 0 Z " fill="#047B03" transform="translate(50,64)"/>
<path d="M0 0 C1.98 0 3.96 0 6 0 C6 1.32 6 2.64 6 4 C5.34 4 4.68 4 4 4 C4 4.66 4 5.32 4 6 C3.34 6 2.68 6 2 6 C2 4.68 2 3.36 2 2 C1.34 2 0.68 2 0 2 C0 1.34 0 0.68 0 0 Z " fill="#CED0C3" transform="translate(38,58)"/>
<path d="M0 0 C0.66 0 1.32 0 2 0 C2 1.32 2 2.64 2 4 C1.34 4 0.68 4 0 4 C0 5.98 0 7.96 0 10 C-0.66 10 -1.32 10 -2 10 C-2 7.36 -2 4.72 -2 2 C-1.34 2 -0.68 2 0 2 C0 1.34 0 0.68 0 0 Z " fill="#0F240B" transform="translate(34,52)"/>
<path d="M0 0 C1.32 0 2.64 0 4 0 C4 1.98 4 3.96 4 6 C2.68 6 1.36 6 0 6 C0 4.02 0 2.04 0 0 Z " fill="#137C0C" transform="translate(46,42)"/>
<path d="M0 0 C1.32 0 2.64 0 4 0 C4 2.64 4 5.28 4 8 C3.34 8 2.68 8 2 8 C2 6.02 2 4.04 2 2 C1.34 2 0.68 2 0 2 C0 1.34 0 0.68 0 0 Z " fill="#130E12" transform="translate(94,90)"/>
<path d="M0 0 C0.66 0 1.32 0 2 0 C2 0.66 2 1.32 2 2 C3.32 2 4.64 2 6 2 C6 2.66 6 3.32 6 4 C5.34 4 4.68 4 4 4 C4 4.66 4 5.32 4 6 C3.34 6 2.68 6 2 6 C2 5.34 2 4.68 2 4 C1.34 4 0.68 4 0 4 C0 2.68 0 1.36 0 0 Z " fill="#083005" transform="translate(86,76)"/>
<path d="M0 0 C0.66 0 1.32 0 2 0 C2 1.32 2 2.64 2 4 C0.68 4 -0.64 4 -2 4 C-2 4.66 -2 5.32 -2 6 C-2.66 6 -3.32 6 -4 6 C-4 4.68 -4 3.36 -4 2 C-2.68 2 -1.36 2 0 2 C0 1.34 0 0.68 0 0 Z " fill="#21C616" transform="translate(32,64)"/>
<path d="M0 0 C1.32 0 2.64 0 4 0 C4 0.66 4 1.32 4 2 C3.34 2 2.68 2 2 2 C2 2.66 2 3.32 2 4 C0.02 4 -1.96 4 -4 4 C-4 3.34 -4 2.68 -4 2 C-2.68 2 -1.36 2 0 2 C0 1.34 0 0.68 0 0 Z " fill="#048203" transform="translate(74,62)"/>
<path d="M0 0 C1.32 0 2.64 0 4 0 C4 0.66 4 1.32 4 2 C3.34 2 2.68 2 2 2 C2 2.66 2 3.32 2 4 C0.02 4 -1.96 4 -4 4 C-4 3.34 -4 2.68 -4 2 C-2.68 2 -1.36 2 0 2 C0 1.34 0 0.68 0 0 Z " fill="#069105" transform="translate(84,56)"/>
<path d="M0 0 C0.66 0 1.32 0 2 0 C2 0.66 2 1.32 2 2 C3.32 2 4.64 2 6 2 C6 2.66 6 3.32 6 4 C3.36 4 0.72 4 -2 4 C-2 3.34 -2 2.68 -2 2 C-1.34 2 -0.68 2 0 2 C0 1.34 0 0.68 0 0 Z " fill="#079405" transform="translate(58,58)"/>
<path d="M0 0 C0.66 0 1.32 0 2 0 C2 1.98 2 3.96 2 6 C1.34 6 0.68 6 0 6 C0 6.66 0 7.32 0 8 C-0.66 8 -1.32 8 -2 8 C-2 6.68 -2 5.36 -2 4 C-1.34 4 -0.68 4 0 4 C0 2.68 0 1.36 0 0 Z " fill="#0F0E0B" transform="translate(110,50)"/>
<path d="M0 0 C1.32 0 2.64 0 4 0 C4 2.64 4 5.28 4 8 C3.34 8 2.68 8 2 8 C2 6.02 2 4.04 2 2 C1.34 2 0.68 2 0 2 C0 1.34 0 0.68 0 0 Z " fill="#0D0D09" transform="translate(56,42)"/>
</svg>
